<?xml version="1.0" standalone="no"?><!DOCTYPE svg PUBLIC "-//W3C//DTD SVG 1.1//EN" "http://www.w3.org/Graphics/SVG/1.1/DTD/svg11.dtd"><svg width="100%" height="100%" viewBox="0 0 27 22" version="1.1" xmlns="http://www.w3.org/2000/svg" xmlns:xlink="http://www.w3.org/1999/xlink" xml:space="preserve" style="fill-rule:evenodd;clip-rule:evenodd;stroke-linejoin:round;stroke-miterlimit:1.41421;"><g><path d="M22.25,3.75c0,-0.552 -0.448,-1 -1,-1l-16,0c-0.552,0 -1,0.448 -1,1l0,2c0,0.552 0.448,1 1,1l16,0c0.552,0 1,-0.448 1,-1l0,-2Z" style="fill:#ebebeb;"/><path d="M22.25,9.75c0,-0.552 -0.448,-1 -1,-1l-16,0c-0.552,0 -1,0.448 -1,1l0,2c0,0.552 0.448,1 1,1l16,0c0.552,0 1,-0.448 1,-1l0,-2Z" style="fill:#ebebeb;"/><path d="M22.25,15.75c0,-0.552 -0.448,-1 -1,-1l-16,0c-0.552,0 -1,0.448 -1,1l0,2c0,0.552 0.448,1 1,1l16,0c0.552,0 1,-0.448 1,-1l0,-2Z" style="fill:#ebebeb;"/></g></svg>