<?xml version="1.0" standalone="no"?><!DOCTYPE svg PUBLIC "-//W3C//DTD SVG 1.1//EN" "http://www.w3.org/Graphics/SVG/1.1/DTD/svg11.dtd"><svg width="100%" height="100%" viewBox="0 0 290 360" version="1.1" xmlns="http://www.w3.org/2000/svg" xmlns:xlink="http://www.w3.org/1999/xlink" xml:space="preserve" style="fill-rule:evenodd;clip-rule:evenodd;stroke-linejoin:round;stroke-miterlimit:1.41421;"><path d="M152.197,54.063l0.455,0.002l0.457,0.002l0.46,0.004l0.461,0.005l0.462,0.006l0.469,0.007l0.459,0.009l0.461,0.01l0.462,0.011l0.46,0.014l0.461,0.015l0.459,0.018l0.458,0.019l0.457,0.021l0.457,0.022l0.457,0.025l0.455,0.027l0.455,0.028l0.454,0.03l0.453,0.032l0.452,0.034l0.452,0.036l0.45,0.038l0.451,0.04l0.448,0.042l0.449,0.043l0.447,0.046l0.447,0.048l0.446,0.049l0.445,0.052l0.445,0.053l0.442,0.056l0.443,0.057l0.442,0.06l0.441,0.061l0.44,0.064l0.44,0.065l0.437,0.068l0.438,0.069l0.436,0.072l0.435,0.074l0.435,0.076l0.434,0.078l0.434,0.08l0.431,0.082l0.431,0.084l0.43,0.087l0.43,0.088l0.427,0.091l0.428,0.093l0.426,0.095l0.425,0.097l0.424,0.099l0.424,0.102l0.422,0.104l0.421,0.106l0.421,0.108l0.419,0.111l0.418,0.112l0.417,0.115l0.417,0.117l0.415,0.12l0.413,0.122l0.413,0.123l0.411,0.127l0.411,0.129l0.411,0.131l0.408,0.133l0.408,0.136l0.406,0.138l0.404,0.14l0.404,0.142l0.403,0.146l0.134,0.049l0.267,0.099l0.4,0.151l0.398,0.154l0.398,0.156l0.396,0.158l0.395,0.161l0.393,0.163l0.393,0.165l0.391,0.168l0.389,0.171l0.389,0.173l0.388,0.176l0.385,0.178l0.384,0.18l0.383,0.183l0.382,0.186l0.379,0.187l0.379,0.191l0.378,0.193l0.375,0.196l0.375,0.198l0.372,0.201l0.371,0.203l0.371,0.206l0.367,0.208l0.368,0.211l0.365,0.213l0.363,0.216l0.363,0.219l0.359,0.221l0.359,0.224l0.357,0.227l0.355,0.229l0.354,0.232l0.352,0.234l0.35,0.237l0.348,0.239l0.348,0.243l0.344,0.244l0.344,0.248l0.341,0.25l0.339,0.253l0.338,0.255l0.336,0.258l0.333,0.26l0.333,0.264l0.33,0.266l0.328,0.268l0.327,0.272l0.324,0.273l0.322,0.277l0.32,0.279l0.319,0.282l0.315,0.284l0.314,0.287l0.312,0.289l0.31,0.293l0.308,0.294l0.305,0.297l0.304,0.3l0.302,0.303l0.298,0.304l0.297,0.309l0.295,0.311l0.293,0.313l0.29,0.315l0.288,0.318l0.285,0.32l0.283,0.323l0.282,0.326l0.279,0.329l0.277,0.331l0.274,0.333l0.272,0.337l0.268,0.337l0.267,0.342l0.264,0.342l0.263,0.347l0.26,0.349l0.257,0.351l0.255,0.353l0.252,0.355l0.25,0.359l0.247,0.361l0.244,0.362l0.243,0.366l0.24,0.368l0.237,0.371l0.234,0.372l0.233,0.375l0.229,0.378l0.227,0.38l0.225,0.382l0.222,0.386l0.219,0.386l0.217,0.39l0.214,0.392l0.211,0.394l0.209,0.396l0.206,0.399l0.204,0.401l0.201,0.403l0.198,0.406l0.195,0.407l0.194,0.411l0.19,0.413l0.188,0.415l0.185,0.417l0.182,0.418l0.18,0.423l0.177,0.422l0.175,0.428l0.171,0.428l0.169,0.429l0.167,0.434l0.163,0.434l0.161,0.436l0.158,0.44l0.156,0.441l0.152,0.443l0.151,0.446l0.147,0.449l0.145,0.45l0.142,0.452l0.14,0.455l0.136,0.456l0.134,0.459l0.132,0.462l0.129,0.464l0.126,0.465l0.123,0.467l0.12,0.469l0.118,0.473l0.115,0.474l0.113,0.475l0.109,0.479l0.107,0.48l0.105,0.484l0.102,0.484l0.098,0.487l0.097,0.49l0.094,0.492l0.09,0.494l0.088,0.494l0.086,0.498l0.082,0.499l0.081,0.503l0.077,0.504l0.075,0.507l0.072,0.509l0.069,0.511l0.067,0.513l0.064,0.515l0.061,0.518l0.058,0.518l0.056,0.524l0.053,0.523l0.051,0.525l0.048,0.529l0.045,0.531l0.042,0.532l0.04,0.536l0.037,0.536l0.034,0.541l0.031,0.543l0.029,0.541l0.026,0.546l0.024,0.55l0.021,0.551l0.018,0.552l0.015,0.553l0.013,0.559l0.01,0.56l0.007,0.561l0.004,0.566l0.002,0.564l-0.001,0.571l-0.003,0.571l-0.007,0.574l-0.009,0.575l-0.012,0.579l-0.014,0.578l-0.017,0.581l-0.02,0.586l-0.023,0.588l-0.025,0.588l-0.028,0.592l-0.031,0.595l-0.034,0.595l-0.023,0.392l-0.025,0.391l-0.026,0.39l-0.027,0.39l-0.029,0.393l-0.03,0.391l-0.032,0.395l-0.032,0.393l-0.035,0.395l-0.035,0.395l-0.037,0.396l-0.038,0.398l-0.039,0.395l-0.041,0.399l-0.028,0.27l-0.015,0.128l-0.046,0.398l-0.047,0.397l-0.049,0.401l-0.05,0.398l-0.051,0.404l-0.053,0.401l-0.053,0.401l-0.055,0.404l-0.056,0.401l-0.057,0.401l-0.059,0.407l-0.06,0.405l-0.061,0.404l-0.062,0.404l-0.063,0.404l-0.065,0.408l-0.065,0.408l-0.067,0.408l-0.068,0.408l-0.069,0.404l-0.07,0.412l-0.072,0.409l-0.072,0.412l-0.074,0.408l-0.075,0.413l-0.075,0.411l-0.077,0.413l-0.079,0.413l-0.078,0.408l-0.081,0.417l-0.081,0.413l-0.082,0.413l-0.083,0.413l-0.085,0.417l-0.086,0.417l-0.086,0.413l-0.088,0.418l-0.088,0.414l-0.09,0.417l-0.09,0.418l-0.092,0.418l-0.093,0.419l-0.094,0.422l-0.095,0.419l-0.095,0.418l-0.097,0.419l-0.098,0.423l-0.098,0.419l-0.101,0.424l-0.1,0.419l-0.101,0.419l-0.102,0.424l-0.104,0.421l-0.105,0.428l-0.105,0.419l-0.106,0.425l-0.107,0.425l-0.109,0.425l-0.109,0.425l-0.11,0.424l-0.11,0.422l-0.111,0.425l-0.114,0.43l-0.228,0.852l-0.231,0.852l-0.235,0.855l-0.238,0.856l-0.241,0.856l-0.245,0.859l-0.249,0.86l-0.251,0.858l-0.254,0.86l-0.259,0.864l-0.26,0.862l-0.265,0.864l-0.266,0.863l-0.27,0.865l-0.273,0.865l-0.275,0.864l-0.279,0.866l-0.282,0.869l-0.284,0.867l-0.287,0.869l-0.29,0.867l-0.292,0.869l-0.295,0.869l-0.296,0.866l-0.301,0.871l-0.302,0.87l-0.304,0.868l-0.308,0.87l-0.309,0.87l-0.267,0.742l-0.046,0.128l-0.316,0.866l-0.319,0.869l-0.321,0.868l-0.323,0.868l-0.326,0.868l-0.327,0.867l-0.33,0.869l-0.33,0.862l-0.335,0.871l-0.334,0.861l-0.337,0.866l-0.34,0.868l-0.34,0.863l-0.343,0.864l-0.342,0.859l-0.346,0.862l-0.347,0.862l-0.349,0.86l-0.35,0.86l-0.352,0.857l-0.353,0.857l-0.353,0.854l-0.356,0.854l-0.357,0.855l-0.358,0.853l-0.36,0.852l-0.361,0.85l-0.362,0.849l-0.361,0.846l-0.364,0.845l-0.364,0.843l-0.366,0.843l-0.367,0.842l-0.368,0.842l-0.368,0.835l-0.367,0.833l-0.371,0.837l-0.371,0.834l-0.37,0.829l-0.373,0.829l-0.371,0.826l-0.374,0.826l-0.372,0.821l-0.373,0.818l-0.375,0.82l-0.374,0.816l-0.376,0.815l-0.376,0.816l-0.374,0.804l-0.376,0.809l-0.375,0.802l-0.377,0.805l-0.376,0.799l-0.373,0.791l-0.378,0.798l-0.375,0.791l-0.376,0.789l-0.375,0.784l-0.375,0.783l-0.375,0.78l-0.377,0.781l-0.373,0.769l-0.374,0.771l-0.374,0.769l-0.288,0.59l-0.087,0.173l-0.381,0.758l-0.381,0.756l-0.379,0.747l-0.381,0.753l-0.377,0.74l-0.379,0.743l-0.377,0.738l-0.375,0.732l-0.377,0.732l-0.374,0.726l-0.373,0.72l-0.374,0.723l-0.372,0.716l-0.371,0.713l-0.368,0.705l-0.37,0.708l-0.366,0.697l-0.364,0.692l-0.365,0.693l-0.364,0.688l-0.722,1.362l-0.717,1.348l-0.709,1.325l-0.704,1.31l-0.697,1.292l-0.689,1.272l-0.683,1.254l-0.673,1.233l-0.666,1.214l-0.659,1.198l-0.646,1.168l-0.406,0.733l-0.233,0.424l-0.625,1.135l-0.615,1.112l-0.603,1.088l-0.594,1.067l-0.584,1.046l-0.57,1.016l-0.561,0.998l-0.547,0.969l-0.538,0.951l-0.523,0.921l-0.511,0.896l-0.498,0.872l-0.484,0.845l-0.47,0.817l-0.457,0.793l-0.439,0.76l-0.404,0.696l-0.023,0.04l-0.401,0.712l-0.386,0.684l-0.372,0.656l-0.355,0.625l-0.338,0.594l-0.322,0.563l-0.593,1.035l-0.421,0.73l-0.095,0.182l-0.418,0.796l-0.348,0.658l-0.276,0.521l-0.202,0.377l-0.163,0.304l-1.643,1.317l-2.117,-0.252l-1.325,-1.67l0.261,-2.09l0.17,-0.294l0.208,-0.359l0.288,-0.499l0.365,-0.637l0.441,-0.773l0.1,-0.176l0.381,-0.741l0.538,-1.052l0.291,-0.572l0.307,-0.605l0.322,-0.635l0.336,-0.665l0.35,-0.696l0.362,-0.722l0.021,-0.04l0.348,-0.722l-0.001,0.004l0.381,-0.792l-0.002,0.004l0.393,-0.82l0.404,-0.843l0.415,-0.871l0.427,-0.898l0.439,-0.926l0.449,-0.952l0.46,-0.978l0.469,-1.001l0.479,-1.025l0.489,-1.052l0.499,-1.076l0.508,-1.101l0.517,-1.124l0.524,-1.145l0.532,-1.166l0.198,-0.437l0.339,-0.755l0.541,-1.213l0.549,-1.235l0.555,-1.253l0.563,-1.277l0.567,-1.295l0.574,-1.315l0.579,-1.332l0.584,-1.352l0.589,-1.369l0.594,-1.388l0.597,-1.404l0.3,-0.707l0.303,-0.715l-0.002,0.004l0.303,-0.718l0.302,-0.72l0.305,-0.725l0.304,-0.727l0.306,-0.733l0.305,-0.735l0.308,-0.743l-0.002,0.005l0.308,-0.746l0.307,-0.745l0.309,-0.751l0.31,-0.756l0.309,-0.757l0.309,-0.759l0.31,-0.763l0.312,-0.771l0.31,-0.77l0.312,-0.775l-0.002,0.005l0.313,-0.781l0.07,-0.176l0.246,-0.598l0.321,-0.779l0.32,-0.783l0.32,-0.785l0.321,-0.788l0.319,-0.789l0.321,-0.795l0.321,-0.795l0.32,-0.8l0.321,-0.802l0.32,-0.805l0.32,-0.806l0.318,-0.806l0.32,-0.811l0.319,-0.815l0.32,-0.817l0.318,-0.819l-0.003,0.007l0.319,-0.822l0.318,-0.824l0.316,-0.823l0.317,-0.826l0.316,-0.83l0.314,-0.827l0.313,-0.829l0.315,-0.836l0.312,-0.833l0.312,-0.838l0.312,-0.839l0.31,-0.839l0.309,-0.841l0.308,-0.841l0.31,-0.849l-0.004,0.008l0.308,-0.848l0.305,-0.846l0.305,-0.85l0.303,-0.848l0.302,-0.851l0.301,-0.851l0.299,-0.851l0.297,-0.852l0.297,-0.852l0.295,-0.854l0.293,-0.854l0.294,-0.859l0.291,-0.856l0.288,-0.853l0.288,-0.86l0.288,-0.862l0.283,-0.855l0.284,-0.861l0.28,-0.857l0.28,-0.861l0.277,-0.859l0.275,-0.859l0.274,-0.86l0.272,-0.859l0.269,-0.859l0.268,-0.859l0.266,-0.859l0.263,-0.858l0.261,-0.859l0.259,-0.857l0.257,-0.858l0.256,-0.859l0.251,-0.853l0.037,-0.126l0.215,-0.729l0.252,-0.858l0.248,-0.855l0.245,-0.85l0.244,-0.854l0.24,-0.851l0.239,-0.851l0.235,-0.849l0.232,-0.848l0.231,-0.85l0.227,-0.844l0.225,-0.847l0.221,-0.84l0.22,-0.846l0.217,-0.841l0.212,-0.839l0.211,-0.837l0.207,-0.836l0.205,-0.836l0.2,-0.832l0.198,-0.831l0.196,-0.831l0.191,-0.827l0.189,-0.827l0.185,-0.823l0.182,-0.822l0.179,-0.82l0.175,-0.816l0.172,-0.814l0.169,-0.815l0.083,-0.406l0.081,-0.401l0.082,-0.409l0.081,-0.403l0.079,-0.402l0.078,-0.401l0.077,-0.397l0.077,-0.405l0.076,-0.398l0.074,-0.399l0.075,-0.402l0.073,-0.4l0.072,-0.396l0.071,-0.395l0.07,-0.398l0.07,-0.396l0.069,-0.395l0.066,-0.392l0.067,-0.395l0.066,-0.392l0.064,-0.388l0.064,-0.395l0.063,-0.39l0.061,-0.389l0.061,-0.388l0.059,-0.387l0.059,-0.385l0.058,-0.388l0.056,-0.384l0.056,-0.386l0.054,-0.381l0.054,-0.383l0.053,-0.384l0.051,-0.377l0.052,-0.384l0.049,-0.379l0.049,-0.378l0.047,-0.375l0.046,-0.376l0.046,-0.377l0.044,-0.373l0.044,-0.375l0.042,-0.369l0.042,-0.375l0.04,-0.371l0.039,-0.366l0.038,-0.371l0.037,-0.37l0.036,-0.364l0.035,-0.367l0.033,-0.361l0.033,-0.364l0.032,-0.363l0.031,-0.363l0.029,-0.359l0.028,-0.361l0.028,-0.358l0.026,-0.358l0.024,-0.353l0.025,-0.356l0.022,-0.353l0.022,-0.353l0.021,-0.352l0.006,-0.113l0.015,-0.237l0.021,-0.348l0.021,-0.347l0.019,-0.347l0.018,-0.346l0.016,-0.344l0.016,-0.342l0.015,-0.343l0.013,-0.341l0.012,-0.339l0.011,-0.337l0.01,-0.338l0.009,-0.333l0.007,-0.336l0.006,-0.331l0.009,-0.526l0.006,-0.523l0.003,-0.517l0.001,-0.516l-0.001,-0.513l-0.003,-0.507l-0.006,-0.507l-0.008,-0.503l-0.01,-0.499l-0.012,-0.497l-0.015,-0.495l-0.017,-0.489l-0.019,-0.488l-0.021,-0.483l-0.024,-0.481l-0.025,-0.479l-0.028,-0.477l-0.03,-0.471l-0.032,-0.468l-0.035,-0.465l-0.036,-0.464l-0.039,-0.459l-0.04,-0.456l-0.043,-0.454l-0.045,-0.452l-0.046,-0.446l-0.049,-0.444l-0.051,-0.442l-0.053,-0.44l-0.055,-0.435l-0.057,-0.431l-0.059,-0.431l-0.061,-0.427l-0.063,-0.423l-0.065,-0.419l-0.067,-0.418l-0.068,-0.414l-0.071,-0.412l-0.072,-0.408l-0.075,-0.406l-0.076,-0.403l-0.079,-0.399l-0.08,-0.396l-0.081,-0.393l-0.084,-0.391l-0.086,-0.388l-0.087,-0.384l-0.089,-0.383l-0.091,-0.379l-0.093,-0.376l-0.094,-0.372l-0.096,-0.372l-0.098,-0.367l-0.1,-0.364l-0.101,-0.362l-0.103,-0.358l-0.105,-0.358l-0.106,-0.352l-0.108,-0.351l-0.11,-0.348l-0.111,-0.344l-0.113,-0.343l-0.115,-0.339l-0.115,-0.335l-0.118,-0.335l-0.119,-0.33l-0.121,-0.328l-0.122,-0.325l-0.124,-0.324l-0.126,-0.319l-0.127,-0.318l-0.128,-0.314l-0.13,-0.313l-0.131,-0.309l-0.133,-0.307l-0.134,-0.304l-0.136,-0.301l-0.137,-0.298l-0.139,-0.298l-0.14,-0.293l-0.141,-0.292l-0.143,-0.288l-0.144,-0.286l-0.145,-0.283l-0.147,-0.281l-0.149,-0.28l-0.149,-0.275l-0.151,-0.274l-0.153,-0.272l-0.153,-0.268l-0.155,-0.267l-0.157,-0.264l-0.157,-0.261l-0.16,-0.261l-0.16,-0.256l-0.161,-0.256l-0.163,-0.252l-0.164,-0.25l-0.165,-0.248l-0.167,-0.245l-0.168,-0.244l-0.169,-0.241l-0.171,-0.239l-0.172,-0.237l-0.172,-0.234l-0.175,-0.233l-0.175,-0.23l-0.177,-0.228l-0.179,-0.227l-0.178,-0.224l-0.181,-0.222l-0.182,-0.22l-0.183,-0.217l-0.184,-0.216l-0.186,-0.215l-0.186,-0.211l-0.189,-0.211l-0.189,-0.208l-0.191,-0.206l-0.191,-0.203l-0.194,-0.203l-0.194,-0.201l-0.196,-0.198l-0.197,-0.197l-0.198,-0.194l-0.199,-0.194l-0.201,-0.191l-0.202,-0.189l-0.203,-0.187l-0.204,-0.186l-0.207,-0.185l-0.207,-0.181l-0.208,-0.181l-0.21,-0.179l-0.212,-0.177l-0.212,-0.175l-0.214,-0.174l-0.215,-0.172l-0.216,-0.17l-0.219,-0.169l-0.218,-0.167l-0.221,-0.165l-0.222,-0.164l-0.222,-0.161l-0.225,-0.161l-0.227,-0.16l-0.227,-0.157l-0.229,-0.155l-0.23,-0.155l-0.232,-0.152l-0.233,-0.151l-0.234,-0.149l-0.236,-0.148l-0.237,-0.146l-0.239,-0.145l-0.239,-0.143l-0.241,-0.141l-0.244,-0.141l-0.245,-0.139l-0.245,-0.136l-0.247,-0.136l-0.249,-0.134l-0.251,-0.133l-0.251,-0.13l-0.253,-0.13l-0.255,-0.128l-0.255,-0.126l-0.258,-0.125l-0.259,-0.124l-0.261,-0.122l-0.262,-0.12l-0.264,-0.119l-0.265,-0.118l-0.266,-0.116l-0.268,-0.114l-0.27,-0.113l-0.271,-0.112l-0.272,-0.11l-0.275,-0.109l-0.274,-0.106l-0.278,-0.106l-0.278,-0.104l-0.281,-0.103l-0.281,-0.101l-0.283,-0.1l-0.285,-0.098l-0.286,-0.096l-0.288,-0.096l-0.192,-0.062l-0.096,-0.032l-0.291,-0.093l-0.291,-0.092l-0.294,-0.091l-0.294,-0.089l-0.297,-0.087l-0.298,-0.086l-0.3,-0.085l-0.3,-0.083l-0.303,-0.082l-0.303,-0.08l-0.305,-0.078l-0.308,-0.077l-0.308,-0.076l-0.31,-0.074l-0.31,-0.072l-0.314,-0.072l-0.313,-0.069l-0.317,-0.069l-0.317,-0.066l-0.319,-0.065l-0.32,-0.064l-0.322,-0.062l-0.323,-0.061l-0.325,-0.059l-0.327,-0.057l-0.326,-0.056l-0.329,-0.055l-0.331,-0.053l-0.331,-0.051l-0.333,-0.05l-0.335,-0.049l-0.336,-0.047l-0.338,-0.045l-0.339,-0.044l-0.34,-0.043l-0.341,-0.041l-0.343,-0.039l-0.345,-0.038l-0.346,-0.036l-0.347,-0.035l-0.348,-0.034l-0.351,-0.032l-0.351,-0.03l-0.352,-0.029l-0.354,-0.027l-0.355,-0.025l-0.358,-0.025l-0.357,-0.022l-0.359,-0.022l-0.361,-0.019l-0.361,-0.018l-0.363,-0.017l-0.365,-0.015l-0.365,-0.014l-0.368,-0.012l-0.368,-0.01l-0.368,-0.009l-0.371,-0.008l-0.372,-0.006l-0.374,-0.004l-0.373,-0.003l-0.376,-0.002l-0.376,0l-0.379,0.002l-0.378,0.003l-0.381,0.005l-0.386,0.006l-0.414,0.007l-0.416,0.009l-0.413,0.009l-0.414,0.01l-0.407,0.011l-0.409,0.012l-0.403,0.013l-0.4,0.014l-0.4,0.015l-0.399,0.015l-0.393,0.017l-0.393,0.017l-0.39,0.018l-0.389,0.019l-0.384,0.02l-0.383,0.02l-0.38,0.022l-0.377,0.022l-0.376,0.023l-0.373,0.024l-0.372,0.025l-0.37,0.025l-0.366,0.027l-0.363,0.027l-0.362,0.028l-0.058,0.005l-0.302,0.025l-0.356,0.03l-0.355,0.031l-0.352,0.033l-0.35,0.032l-0.348,0.034l-0.345,0.035l-0.344,0.035l-0.341,0.036l-0.338,0.037l-0.337,0.037l-0.336,0.039l-0.331,0.039l-0.33,0.04l-0.328,0.04l-0.324,0.041l-0.323,0.042l-0.321,0.043l-0.319,0.044l-0.316,0.044l-0.315,0.045l-0.312,0.046l-0.31,0.046l-0.309,0.047l-0.304,0.048l-0.305,0.049l-0.3,0.049l-0.299,0.05l-0.299,0.05l-0.293,0.051l-0.293,0.052l-0.291,0.053l-0.287,0.053l-0.288,0.054l-0.285,0.055l-0.282,0.055l-0.28,0.056l-0.278,0.057l-0.274,0.057l-0.276,0.058l-0.271,0.058l-0.27,0.059l-0.269,0.06l-0.266,0.06l-0.263,0.061l-0.262,0.061l-0.259,0.062l-0.258,0.063l-0.256,0.063l-0.254,0.064l-0.251,0.065l-0.25,0.065l-0.247,0.065l-0.247,0.066l-0.244,0.067l-0.242,0.067l-0.241,0.068l-0.238,0.068l-0.236,0.069l-0.235,0.07l-0.232,0.069l-0.231,0.071l-0.228,0.071l-0.228,0.071l-0.224,0.072l-0.225,0.073l-0.221,0.073l-0.22,0.073l-0.217,0.074l-0.217,0.075l-0.214,0.074l-0.212,0.076l-0.21,0.075l-0.209,0.077l-0.209,0.077l-0.206,0.077l-0.202,0.078l-0.203,0.078l-0.201,0.078l-0.198,0.079l-0.197,0.079l-0.196,0.081l-0.194,0.08l-0.192,0.081l-0.191,0.081l-0.188,0.081l-0.188,0.082l-0.186,0.083l-0.184,0.082l-0.183,0.084l-0.181,0.083l-0.18,0.084l-0.179,0.085l-0.176,0.084l-0.175,0.085l-0.174,0.086l-0.172,0.085l-0.171,0.087l-0.169,0.087l-0.168,0.086l-0.167,0.088l-0.165,0.088l-0.164,0.088l-0.163,0.089l-0.162,0.089l-0.158,0.089l-0.159,0.089l-0.158,0.091l-0.156,0.09l-0.155,0.091l-0.153,0.091l-0.152,0.091l-0.151,0.092l-0.15,0.092l-0.149,0.093l-0.146,0.093l-0.147,0.093l-0.145,0.094l-0.144,0.094l-0.116,0.077l-0.027,0.019l-0.138,0.099l-0.139,0.101l-0.136,0.1l-0.135,0.1l-0.135,0.102l-0.133,0.101l-0.133,0.103l-0.13,0.101l-0.13,0.103l-0.13,0.103l-0.128,0.103l-0.128,0.104l-0.126,0.104l-0.125,0.104l-0.124,0.105l-0.124,0.104l-0.122,0.106l-0.123,0.106l-0.12,0.106l-0.12,0.107l-0.12,0.107l-0.118,0.108l-0.117,0.107l-0.117,0.109l-0.116,0.109l-0.116,0.109l-0.114,0.11l-0.114,0.109l-0.113,0.111l-0.113,0.112l-0.111,0.111l-0.111,0.112l-0.11,0.112l-0.11,0.113l-0.109,0.114l-0.109,0.114l-0.107,0.114l-0.108,0.115l-0.105,0.115l-0.107,0.116l-0.105,0.117l-0.105,0.117l-0.104,0.118l-0.104,0.118l-0.103,0.118l-0.103,0.12l-0.101,0.119l-0.103,0.122l-0.101,0.121l-0.1,0.121l-0.1,0.122l-0.101,0.123l-0.099,0.123l-0.099,0.125l-0.098,0.124l-0.098,0.126l-0.098,0.126l-0.097,0.127l-0.097,0.127l-0.096,0.128l-0.097,0.129l-0.094,0.128l-0.096,0.131l-0.095,0.131l-0.094,0.131l-0.095,0.133l-0.094,0.132l-0.093,0.134l-0.093,0.133l-0.093,0.135l-0.093,0.137l-0.092,0.136l-0.092,0.137l-0.093,0.139l-0.09,0.137l-0.091,0.139l-0.091,0.14l-0.091,0.142l-0.091,0.142l-0.09,0.142l-0.089,0.143l-0.09,0.144l-0.09,0.145l-0.089,0.146l-0.088,0.145l-0.09,0.15l-0.088,0.147l-0.088,0.148l-0.089,0.151l-0.087,0.149l-0.083,0.144l-0.18,0.313l-0.174,0.308l-0.174,0.312l-0.172,0.315l-0.173,0.318l-0.171,0.322l-0.171,0.325l-0.171,0.329l-0.17,0.332l-0.171,0.338l-0.088,0.178l-0.088,0.179l-0.088,0.181l-0.085,0.177l-0.085,0.179l-0.083,0.178l-0.083,0.177l-0.081,0.176l-0.08,0.177l-0.079,0.174l-0.005,0.011l-0.072,0.164l-0.076,0.175l-0.074,0.173l-0.074,0.173l-0.072,0.173l-0.072,0.172l-0.07,0.171l-0.069,0.171l-0.068,0.169l-0.067,0.17l-0.066,0.17l-0.065,0.168l-0.063,0.167l-0.063,0.168l-0.062,0.167l-0.061,0.165l-0.06,0.165l-0.058,0.164l-0.058,0.166l-0.056,0.162l-0.057,0.164l-0.054,0.162l-0.054,0.161l-0.053,0.162l-0.052,0.161l-0.051,0.16l-0.05,0.159l-0.049,0.158l-0.048,0.158l-0.048,0.159l-0.047,0.157l-0.046,0.157l-0.044,0.155l-0.044,0.155l-0.043,0.156l-0.042,0.154l-0.042,0.154l-0.04,0.153l-0.04,0.152l-0.039,0.153l-0.037,0.15l-0.038,0.151l-0.036,0.152l-0.036,0.149l-0.035,0.149l-0.034,0.149l-0.033,0.147l-0.033,0.149l-0.031,0.146l-0.031,0.147l-0.03,0.145l-0.03,0.147l-0.029,0.144l-0.028,0.144l-0.027,0.143l-0.027,0.144l-0.026,0.143l-0.025,0.143l-0.025,0.142l-0.024,0.14l-0.023,0.143l-0.022,0.137l-0.023,0.141l-0.021,0.139l-0.021,0.14l-0.017,0.124l-0.041,0.288l-0.035,0.273l-0.034,0.27l-0.03,0.269l-0.029,0.266l-0.026,0.266l-0.024,0.263l-0.022,0.261l-0.02,0.258l-0.017,0.257l-0.016,0.255l-0.013,0.254l-0.012,0.251l-0.01,0.249l-0.008,0.249l-0.006,0.246l-0.004,0.244l-0.002,0.242l-0.001,0.241l0.001,0.238l0.003,0.237l0.004,0.237l0.005,0.233l0.007,0.232l0.009,0.231l0.01,0.227l0.012,0.228l0.006,0.111l0.003,0.114l0.009,0.223l0.01,0.222l0.011,0.221l0.012,0.218l0.014,0.218l0.014,0.216l0.016,0.213l0.017,0.213l0.018,0.211l0.019,0.209l0.02,0.209l0.021,0.207l0.022,0.205l0.023,0.204l0.024,0.202l0.025,0.2l0.025,0.199l0.026,0.2l0.027,0.194l0.028,0.197l0.028,0.194l0.029,0.191l0.03,0.191l0.03,0.191l0.031,0.188l0.032,0.189l0.032,0.185l0.032,0.185l0.033,0.184l0.033,0.18l0.033,0.182l0.033,0.172l0.071,0.369l0.035,0.18l0.037,0.173l0.075,0.351l0.076,0.348l0.076,0.346l0.077,0.346l0.077,0.346l0.155,0.699l0.077,0.353l0.076,0.36l0.076,0.372l0.076,0.383l0.071,0.383l0.039,0.223l0.03,0.17l-0.315,5.536l-2.34,4.835l-3.975,3.613l-5.221,1.871l-5.538,-0.314l-4.837,-2.338l-3.614,-3.974l-1.871,-5.22l-0.008,-0.09l-0.001,-0.043l-0.016,-0.171l-0.022,-0.197l-0.028,-0.237l-0.035,-0.269l-0.042,-0.309l-0.099,-0.701l-0.055,-0.391l-0.059,-0.415l-0.061,-0.439l-0.063,-0.461l-0.064,-0.484l-0.031,-0.248l-0.035,-0.256l-0.067,-0.514l-0.036,-0.28l-0.034,-0.277l-0.033,-0.28l-0.033,-0.283l-0.033,-0.289l-0.031,-0.293l-0.032,-0.3l-0.03,-0.301l-0.03,-0.305l-0.029,-0.313l-0.027,-0.315l-0.027,-0.319l-0.025,-0.322l-0.025,-0.328l-0.023,-0.334l-0.022,-0.335l-0.02,-0.34l-0.019,-0.344l-0.017,-0.347l-0.015,-0.352l-0.014,-0.354l-0.012,-0.359l-0.01,-0.363l-0.008,-0.368l-0.006,-0.37l-0.004,-0.372l-0.002,-0.378l0,-0.38l0.003,-0.384l0.005,-0.387l0.008,-0.392l0.01,-0.394l0.006,-0.202l0.009,-0.196l0.021,-0.401l0.024,-0.403l0.027,-0.407l0.03,-0.411l0.032,-0.413l0.036,-0.416l0.039,-0.418l0.042,-0.423l0.045,-0.425l0.049,-0.427l0.052,-0.43l0.056,-0.433l0.059,-0.437l0.062,-0.437l0.067,-0.441l0.07,-0.444l0.074,-0.446l0.077,-0.449l0.082,-0.45l0.085,-0.453l0.09,-0.456l0.093,-0.458l0.098,-0.46l0.102,-0.463l0.106,-0.463l0.111,-0.467l0.112,-0.456l0.062,-0.246l0.06,-0.238l0.061,-0.235l0.063,-0.235l0.064,-0.239l0.064,-0.235l0.066,-0.238l0.067,-0.238l0.068,-0.24l0.07,-0.241l0.07,-0.239l0.072,-0.24l0.073,-0.24l0.074,-0.242l0.075,-0.239l0.077,-0.244l0.078,-0.243l0.079,-0.242l0.08,-0.241l0.081,-0.243l0.083,-0.245l0.084,-0.244l0.085,-0.245l0.086,-0.244l0.088,-0.244l0.089,-0.248l0.091,-0.246l0.091,-0.245l0.093,-0.247l0.093,-0.246l0.096,-0.249l0.096,-0.246l0.099,-0.249l0.099,-0.247l0.1,-0.248l0.102,-0.249l0.104,-0.25l0.105,-0.25l0.105,-0.249l0.108,-0.25l0.108,-0.249l0.11,-0.251l0.112,-0.252l0.112,-0.25l0.114,-0.251l0.116,-0.252l0.117,-0.251l0.117,-0.251l0.12,-0.253l0.122,-0.253l0.121,-0.251l0.124,-0.253l0.126,-0.254l0.126,-0.252l0.128,-0.253l0.13,-0.255l0.131,-0.253l0.132,-0.253l0.134,-0.255l0.135,-0.254l0.136,-0.252l0.138,-0.256l0.14,-0.254l0.142,-0.257l0.142,-0.255l0.135,-0.239l0.009,-0.016l0.144,-0.255l0.146,-0.255l0.149,-0.258l0.148,-0.255l0.151,-0.257l0.152,-0.256l0.154,-0.257l0.154,-0.255l0.157,-0.257l0.16,-0.26l0.267,-0.428l0.272,-0.43l0.275,-0.429l0.278,-0.429l0.28,-0.427l0.283,-0.427l0.287,-0.426l0.289,-0.424l0.293,-0.424l0.29,-0.413l0.156,-0.22l0.149,-0.208l0.152,-0.211l0.152,-0.21l0.153,-0.211l0.154,-0.209l0.155,-0.208l0.155,-0.209l0.157,-0.208l0.156,-0.206l0.159,-0.209l0.161,-0.208l0.159,-0.205l0.162,-0.206l0.161,-0.205l0.164,-0.206l0.164,-0.205l0.166,-0.205l0.167,-0.205l0.166,-0.203l0.169,-0.203l0.169,-0.202l0.17,-0.202l0.172,-0.202l0.173,-0.202l0.173,-0.2l0.175,-0.2l0.175,-0.2l0.178,-0.2l0.177,-0.198l0.18,-0.199l0.18,-0.197l0.181,-0.196l0.183,-0.198l0.184,-0.196l0.183,-0.194l0.186,-0.194l0.187,-0.195l0.188,-0.193l0.191,-0.194l0.19,-0.192l0.192,-0.191l0.192,-0.191l0.194,-0.19l0.196,-0.189l0.195,-0.188l0.198,-0.189l0.199,-0.187l0.2,-0.186l0.201,-0.186l0.202,-0.184l0.203,-0.185l0.206,-0.184l0.205,-0.182l0.207,-0.182l0.209,-0.181l0.21,-0.18l0.21,-0.179l0.213,-0.179l0.212,-0.178l0.215,-0.176l0.216,-0.177l0.217,-0.175l0.218,-0.174l0.219,-0.173l0.222,-0.173l0.221,-0.171l0.223,-0.171l0.224,-0.169l0.226,-0.169l0.228,-0.168l0.227,-0.167l0.229,-0.165l0.231,-0.165l0.232,-0.164l0.233,-0.163l0.234,-0.162l0.236,-0.161l0.237,-0.16l0.237,-0.158l0.239,-0.158l0.241,-0.156l0.242,-0.156l0.242,-0.155l0.244,-0.153l0.246,-0.152l0.247,-0.152l0.248,-0.151l0.249,-0.149l0.25,-0.148l0.252,-0.147l0.048,-0.028l0.201,-0.121l0.251,-0.15l0.253,-0.149l0.253,-0.148l0.255,-0.146l0.256,-0.146l0.258,-0.144l0.258,-0.143l0.26,-0.143l0.261,-0.14l0.262,-0.14l0.263,-0.139l0.265,-0.137l0.267,-0.137l0.267,-0.136l0.268,-0.134l0.27,-0.133l0.271,-0.132l0.272,-0.131l0.274,-0.13l0.276,-0.129l0.275,-0.127l0.278,-0.127l0.278,-0.125l0.28,-0.124l0.281,-0.123l0.283,-0.122l0.283,-0.121l0.285,-0.119l0.287,-0.119l0.287,-0.117l0.289,-0.116l0.289,-0.115l0.292,-0.114l0.293,-0.112l0.292,-0.111l0.296,-0.111l0.297,-0.109l0.296,-0.108l0.3,-0.107l0.299,-0.105l0.302,-0.105l0.302,-0.103l0.305,-0.103l0.305,-0.101l0.307,-0.1l0.307,-0.099l0.31,-0.098l0.31,-0.096l0.312,-0.096l0.313,-0.094l0.314,-0.093l0.315,-0.092l0.318,-0.09l0.318,-0.09l0.32,-0.089l0.321,-0.087l0.321,-0.086l0.325,-0.086l0.324,-0.084l0.327,-0.083l0.328,-0.081l0.328,-0.081l0.331,-0.079l0.332,-0.079l0.333,-0.077l0.334,-0.076l0.336,-0.075l0.337,-0.074l0.339,-0.073l0.34,-0.072l0.341,-0.07l0.344,-0.07l0.344,-0.068l0.346,-0.067l0.347,-0.066l0.348,-0.065l0.35,-0.064l0.352,-0.063l0.353,-0.062l0.355,-0.06l0.356,-0.06l0.357,-0.058l0.359,-0.058l0.36,-0.056l0.362,-0.055l0.363,-0.054l0.365,-0.053l0.367,-0.052l0.368,-0.05l0.369,-0.05l0.371,-0.049l0.373,-0.047l0.374,-0.047l0.375,-0.045l0.378,-0.044l0.379,-0.044l0.381,-0.042l0.382,-0.041l0.383,-0.04l0.386,-0.039l0.387,-0.037l0.388,-0.037l0.39,-0.036l0.392,-0.034l0.394,-0.034l0.395,-0.032l0.397,-0.032l0.398,-0.03l0.401,-0.029l0.402,-0.028l0.403,-0.027l0.406,-0.026l0.407,-0.025l0.409,-0.024l0.41,-0.023l0.413,-0.022l0.413,-0.021l0.416,-0.019l0.351,-0.016l0.067,-0.003l0.42,-0.018l0.42,-0.018l0.424,-0.016l0.425,-0.015l0.426,-0.014l0.428,-0.013l0.431,-0.012l0.432,-0.011l0.434,-0.01l0.437,-0.009l0.437,-0.008l0.439,-0.007l0.443,-0.005l0.442,-0.005l0.446,-0.004l0.446,-0.002l0.449,-0.001l0.452,-0.001l0.453,0.001Z" style="fill:#000;"/><path d="M64.951,157.478c3.319,4.369 28.294,66.195 30,78c2.115,-10.296 8.256,-56.953 12,-66c-18.982,5.92 -33.256,-2.968 -42,-12Z" style="fill:#000;"/><path d="M65.487,153.407l0.669,0.146l0.636,0.255l0.585,0.357l0.517,0.45l0.189,0.211l0.186,0.207l0.186,0.205l0.188,0.205l0.19,0.205l0.192,0.205l0.193,0.204l0.196,0.204l0.197,0.204l0.199,0.203l0.201,0.203l0.204,0.203l0.204,0.202l0.208,0.203l0.207,0.2l0.21,0.2l0.213,0.201l0.214,0.199l0.215,0.198l0.217,0.198l0.22,0.197l0.221,0.196l0.223,0.195l0.225,0.195l0.226,0.193l0.228,0.193l0.231,0.191l0.231,0.19l0.235,0.19l0.234,0.187l0.238,0.187l0.239,0.186l0.24,0.184l0.243,0.183l0.245,0.182l0.016,0.013l0.23,0.166l0.249,0.179l0.25,0.176l0.252,0.175l0.254,0.173l0.256,0.172l0.257,0.17l0.258,0.168l0.262,0.168l0.262,0.164l0.265,0.164l0.266,0.162l0.268,0.16l0.27,0.158l0.271,0.156l0.273,0.154l0.275,0.152l0.277,0.15l0.278,0.148l0.28,0.145l0.282,0.145l0.287,0.143l0.138,0.068l0.143,0.069l0.145,0.07l0.145,0.069l0.142,0.066l0.146,0.068l0.145,0.067l0.146,0.066l0.145,0.065l0.147,0.065l0.147,0.064l0.147,0.064l0.147,0.063l0.15,0.063l0.148,0.061l0.149,0.062l0.149,0.06l0.151,0.06l0.15,0.06l0.151,0.058l0.151,0.058l0.152,0.058l0.153,0.057l0.152,0.056l0.154,0.056l0.154,0.054l0.153,0.054l0.155,0.054l0.156,0.053l0.156,0.052l0.154,0.051l0.157,0.051l0.158,0.05l0.158,0.05l0.157,0.048l0.158,0.049l0.158,0.046l0.159,0.047l0.161,0.046l0.159,0.045l0.162,0.045l0.159,0.043l0.162,0.043l0.163,0.042l0.163,0.042l0.161,0.04l0.164,0.04l0.165,0.039l0.163,0.039l0.166,0.037l0.165,0.037l0.165,0.036l0.167,0.035l0.166,0.035l0.168,0.033l0.168,0.033l0.167,0.032l0.169,0.031l0.17,0.031l0.17,0.03l0.17,0.028l0.17,0.028l0.172,0.027l0.17,0.026l0.173,0.026l0.172,0.024l0.174,0.024l0.172,0.023l0.175,0.022l0.175,0.021l0.175,0.02l0.175,0.019l0.176,0.019l0.177,0.017l0.177,0.017l0.178,0.016l0.178,0.015l0.179,0.013l0.18,0.013l0.178,0.012l0.181,0.012l0.181,0.01l0.181,0.009l0.181,0.008l0.184,0.008l0.182,0.006l0.183,0.005l0.185,0.005l0.183,0.003l0.186,0.003l0.185,0.001l0.185,0.001l0.188,-0.001l0.186,-0.001l0.188,-0.003l0.189,-0.003l0.188,-0.005l0.189,-0.006l0.189,-0.006l0.191,-0.008l0.19,-0.009l0.191,-0.009l0.192,-0.011l0.067,-0.004l0.126,-0.009l0.192,-0.014l0.195,-0.015l0.193,-0.016l0.195,-0.017l0.195,-0.018l0.195,-0.02l0.196,-0.02l0.197,-0.022l0.197,-0.022l0.198,-0.024l0.198,-0.025l0.199,-0.026l0.199,-0.028l0.2,-0.028l0.2,-0.03l0.201,-0.03l0.202,-0.032l0.202,-0.033l0.203,-0.035l0.202,-0.035l0.204,-0.037l0.205,-0.037l0.204,-0.039l0.205,-0.041l0.206,-0.041l0.207,-0.043l0.207,-0.044l0.208,-0.045l0.207,-0.046l0.21,-0.048l0.209,-0.049l0.21,-0.05l0.21,-0.051l0.21,-0.053l0.212,-0.054l0.213,-0.055l0.212,-0.057l0.218,-0.061l0,0l0.402,-0.087l0.41,-0.016l0.407,0.056l0.391,0.124l0.364,0.191l0.325,0.25l0.277,0.303l0.221,0.346l0.157,0.379l0.09,0.401l0.019,0.41l-0.053,0.407l-0.121,0.391l-0.043,0.097l-0.04,0.09l-0.041,0.095l-0.042,0.099l-0.043,0.103l-0.044,0.108l-0.044,0.113l-0.045,0.115l-0.046,0.119l-0.046,0.124l-0.047,0.127l-0.046,0.129l-0.097,0.276l-0.098,0.286l-0.1,0.301l-0.102,0.314l-0.103,0.327l-0.105,0.34l-0.106,0.352l-0.107,0.363l-0.109,0.376l-0.11,0.387l-0.111,0.397l-0.112,0.408l-0.113,0.42l-0.114,0.429l-0.115,0.439l-0.087,0.335l-0.029,0.114l-0.115,0.461l-0.115,0.467l-0.116,0.478l-0.117,0.485l-0.118,0.496l-0.118,0.503l-0.119,0.511l-0.12,0.519l-0.12,0.526l-0.121,0.535l-0.121,0.541l-0.122,0.549l-0.122,0.554l-0.123,0.562l-0.123,0.568l-0.124,0.573l-0.124,0.581l-0.124,0.584l-0.125,0.593l-0.124,0.595l-0.251,1.207l-0.251,1.225l-0.252,1.242l-0.253,1.257l-0.082,0.412l-0.164,0.858l-0.244,1.282l-0.243,1.292l-0.243,1.301l-0.243,1.306l-0.241,1.311l0,-0.001l-0.241,1.314l-0.239,1.314l-0.238,1.314l-0.237,1.313l0,-0.001l-0.235,1.308l0,-0.001l-0.233,1.303l0,-0.001l-0.049,0.277l-0.174,1.02l0,-0.001l-0.434,2.565l0,-0.001l-0.424,2.514l0,0l-0.167,0.994l-0.234,1.455l-0.381,2.377l-0.369,2.289l-0.054,0.335l-0.277,1.848l-0.158,1.049l-0.155,1.018l-0.151,0.987l-0.146,0.95l-0.143,0.916l-0.138,0.877l-0.134,0.839l-0.13,0.797l-0.125,0.754l-0.12,0.71l-0.058,0.339l-0.058,0.327l-0.055,0.315l-0.055,0.303l-0.054,0.292l-0.052,0.279l-0.005,0.026l-0.043,0.24l-0.048,0.252l-0.058,0.201l-0.091,0.19l-0.12,0.172l-0.147,0.149l-0.169,0.124l-0.187,0.095l-0.201,0.063l-0.208,0.029l-0.209,-0.006l-0.207,-0.039l-0.197,-0.073l-0.182,-0.104l-0.163,-0.132l-0.139,-0.158l-0.111,-0.178l-0.081,-0.193l-0.049,-0.205l-0.022,-0.134l-0.024,-0.133l-0.026,-0.138l-0.028,-0.144l-0.03,-0.148l-0.033,-0.154l-0.035,-0.158l-0.037,-0.163l-0.039,-0.167l-0.041,-0.173l-0.043,-0.176l-0.045,-0.182l-0.048,-0.186l-0.049,-0.19l-0.051,-0.194l-0.054,-0.198l-0.055,-0.203l-0.057,-0.206l-0.06,-0.211l-0.061,-0.215l-0.128,-0.442l-0.136,-0.457l-0.143,-0.472l-0.15,-0.487l-0.157,-0.501l-0.164,-0.515l-0.171,-0.529l-0.178,-0.542l-0.184,-0.555l-0.19,-0.567l-0.197,-0.581l-0.203,-0.591l-0.209,-0.604l-0.214,-0.615l-0.22,-0.625l-0.175,-0.494l-0.052,-0.143l-0.237,-0.645l-0.241,-0.654l-0.247,-0.665l-0.253,-0.675l-0.257,-0.683l-0.262,-0.692l-0.266,-0.7l-0.271,-0.708l-0.276,-0.718l0.001,0.002l-0.28,-0.726l-0.284,-0.731l-0.288,-0.738l0.001,0.002l-0.292,-0.746l-0.295,-0.75l-0.298,-0.756l-0.303,-0.765l0.001,0.002l-0.307,-0.77l0.001,0.002l-0.134,-0.335l-0.178,-0.438l-0.316,-0.776l-0.32,-0.78l-0.322,-0.785l-0.324,-0.787l-0.327,-0.791l-0.331,-0.797l0.001,0.002l-0.332,-0.799l0,0.002l-0.334,-0.803l0.001,0.002l-0.337,-0.804l0.001,0.002l-0.338,-0.807l0,0.002l-0.339,-0.808l0,0.002l-0.341,-0.81l0.001,0.002l-0.343,-0.809l-0.343,-0.81l-0.305,-0.718l-0.04,-0.092l0.001,0.002l-0.351,-0.809l-0.352,-0.809l-0.353,-0.807l0.001,0.002l-0.353,-0.807l-0.353,-0.807l0,0.002l-0.354,-0.806l0.001,0.002l-0.354,-0.804l0.001,0.002l-0.354,-0.801l-0.354,-0.8l0.001,0.002l-0.353,-0.796l-0.353,-0.794l0.001,0.004l-0.703,-1.577l-0.699,-1.56l-0.695,-1.543l-0.689,-1.521l-0.681,-1.499l-0.339,-0.742l-0.335,-0.734l0.001,0.003l-0.334,-0.727l-0.332,-0.722l0.002,0.002l-0.33,-0.715l0.001,0.003l-0.325,-0.705l-0.324,-0.697l-0.32,-0.689l0.002,0.003l-0.045,-0.097l-0.276,-0.583l-0.316,-0.667l-0.313,-0.658l-0.311,-0.653l0.001,0.003l-0.306,-0.641l-0.302,-0.629l-0.298,-0.619l-0.293,-0.607l-0.288,-0.595l-0.285,-0.585l-0.281,-0.575l-0.275,-0.562l-0.269,-0.546l-0.265,-0.535l-0.26,-0.523l-0.253,-0.508l-0.249,-0.496l-0.242,-0.48l-0.236,-0.466l-0.231,-0.452l-0.223,-0.434l-0.219,-0.422l-0.21,-0.403l-0.203,-0.387l-0.197,-0.372l-0.189,-0.352l-0.181,-0.335l-0.174,-0.317l-0.165,-0.297l-0.156,-0.276l-0.148,-0.258l-0.137,-0.235l-0.128,-0.212l-0.118,-0.194l-0.051,-0.08l-0.05,-0.078l-0.046,-0.07l-0.043,-0.064l-0.038,-0.055l-0.034,-0.047l-0.029,-0.038l-0.037,-0.052l0.03,0.047l-0.031,-0.041l-0.015,-0.019l-0.002,0.001l0.031,0.043l-0.02,-0.021l-0.016,-0.018l0,0l-0.361,-0.582l-0.258,-0.635l-0.15,-0.668l-0.012,-0.232l-0.024,-0.453l0.078,-0.68l0.19,-0.658l0.297,-0.618l0.396,-0.559l0.483,-0.486l0.557,-0.399l0.616,-0.3l0.657,-0.194l0.68,-0.082l0.685,0.032ZM64.991,157.531l0.042,0.059l0.044,0.065l0.046,0.069l0.047,0.075l0.05,0.079l0.051,0.085l0.054,0.089l0.055,0.095l0.057,0.099l0.059,0.105l0.06,0.109l0.127,0.232l0.133,0.252l0.141,0.27l0.147,0.288l0.154,0.307l0.161,0.324l0.167,0.341l0.173,0.359l0.179,0.375l0.185,0.391l0.191,0.408l0.197,0.424l0.203,0.439l0.208,0.454l0.213,0.469l0.219,0.484l0.223,0.498l0.229,0.512l0.234,0.525l0.238,0.539l0.243,0.552l0.247,0.565l0.252,0.577l0.255,0.59l0.26,0.601l0.264,0.612l0.268,0.624l0.271,0.635l0.275,0.645l0.278,0.656l0.282,0.665l0.285,0.676l0.288,0.684l0.29,0.694l0.294,0.702l0.296,0.711l0.299,0.719l0.301,0.727l0.303,0.734l0.306,0.742l0.308,0.748l0.309,0.755l0.624,1.528l0.63,1.551l0.636,1.572l0.639,1.589l0.642,1.604l0.322,0.807l0.322,0.81l0.322,0.813l0.322,0.815l0.323,0.817l0.322,0.818l0.322,0.82l0.322,0.821l0.321,0.822l0.32,0.822l0.319,0.822l0.319,0.822l0.317,0.822l0.317,0.821l0.315,0.82l0.313,0.818l0.312,0.817l0.31,0.814l0.309,0.813l0.306,0.809l0.304,0.807l0.303,0.803l0.299,0.8l0.298,0.796l0.294,0.792l0.292,0.787l0.289,0.783l0.286,0.777l0.283,0.773l0.28,0.766l0.276,0.76l0.273,0.754l0.269,0.748l0.265,0.74l0.262,0.733l0.257,0.726l0.254,0.718l0.249,0.709l0.244,0.701l0.241,0.693l0.235,0.683l0.231,0.674l0.225,0.664l0.221,0.654l0.216,0.644l0.21,0.633l0.204,0.622l0.2,0.611l0.193,0.6l0.188,0.587l0.181,0.576l0.176,0.563l0.17,0.55l0.163,0.537l0.156,0.524l0.15,0.51l0.144,0.495l0.136,0.482l0.129,0.467l0.123,0.452l0.058,0.22l0.057,0.217l0.055,0.213l0.053,0.208l0.051,0.205l0.049,0.201l0.047,0.196l0.046,0.193l0.043,0.188l0.042,0.185l0.039,0.18l0.038,0.176l0.035,0.171l0.034,0.167l0.031,0.163l0.03,0.159l0.027,0.154l0.025,0.15l0.023,0.145l0.021,0.141l0.051,-0.248l0.051,-0.261l0.054,-0.274l0.054,-0.287l0.056,-0.299l0.058,-0.311l0.058,-0.324l0.06,-0.335l0.125,-0.705l0.129,-0.75l0.134,-0.793l0.14,-0.834l0.144,-0.874l0.148,-0.912l0.153,-0.949l0.157,-0.983l0.162,-1.016l0.165,-1.047l0.342,-2.182l0.356,-2.286l0.369,-2.378l0.382,-2.455l0.391,-2.519l0.402,-2.57l0.203,-1.299l0.206,-1.307l0.208,-1.313l0.209,-1.318l0.21,-1.319l0.212,-1.321l0.213,-1.319l0.215,-1.317l0.215,-1.312l0.216,-1.307l0.216,-1.299l0.217,-1.289l0.217,-1.279l0.218,-1.265l0.217,-1.252l0.217,-1.235l0.217,-1.217l0.109,-0.601l0.108,-0.597l0.108,-0.591l0.108,-0.585l0.108,-0.58l0.107,-0.574l0.108,-0.567l0.107,-0.561l0.107,-0.555l0.106,-0.548l0.106,-0.541l0.106,-0.534l0.106,-0.526l0.105,-0.518l0.105,-0.511l0.105,-0.503l0.104,-0.494l0.104,-0.486l0.103,-0.478l0.103,-0.468l0.102,-0.459l0.102,-0.45l0.102,-0.441l0.1,-0.43l0.101,-0.421l0.099,-0.41l0.1,-0.4l0.098,-0.39l0.098,-0.379l0.097,-0.367l0.097,-0.357l0.096,-0.345l0.095,-0.333l0.095,-0.321l0.094,-0.31l0.093,-0.297l0.046,-0.144l0.046,-0.141l0.046,-0.137l0.045,-0.134l0.046,-0.131l0.045,-0.128l0.045,-0.125l0.045,-0.121l0.045,-0.118l0.044,-0.115l0.044,-0.111l0.044,-0.107l-0.222,0.068l-0.222,0.068l-0.221,0.066l-0.221,0.064l-0.221,0.064l-0.22,0.062l-0.219,0.06l-0.219,0.06l-0.219,0.058l-0.219,0.056l-0.218,0.056l-0.217,0.054l-0.217,0.053l-0.217,0.051l-0.216,0.051l-0.216,0.049l-0.215,0.047l-0.215,0.047l-0.214,0.045l-0.214,0.044l-0.214,0.043l-0.213,0.041l-0.212,0.04l-0.213,0.039l-0.212,0.038l-0.211,0.036l-0.211,0.036l-0.21,0.034l-0.21,0.033l-0.21,0.031l-0.209,0.031l-0.209,0.029l-0.208,0.028l-0.208,0.027l-0.207,0.026l-0.207,0.024l-0.207,0.024l-0.206,0.022l-0.206,0.021l-0.205,0.02l-0.205,0.019l-0.204,0.017l-0.204,0.017l-0.203,0.015l-0.203,0.015l-0.203,0.013l-0.202,0.012l-0.201,0.011l-0.202,0.009l-0.2,0.009l-0.201,0.008l-0.2,0.006l-0.199,0.006l-0.199,0.004l-0.198,0.003l-0.199,0.002l-0.197,0.002l-0.197,0l-0.197,-0.001l-0.196,-0.002l-0.196,-0.003l-0.196,-0.004l-0.194,-0.006l-0.195,-0.006l-0.194,-0.007l-0.194,-0.008l-0.193,-0.009l-0.192,-0.01l-0.193,-0.012l-0.191,-0.012l-0.192,-0.013l-0.191,-0.014l-0.19,-0.015l-0.19,-0.016l-0.19,-0.017l-0.189,-0.018l-0.188,-0.019l-0.188,-0.02l-0.188,-0.021l-0.187,-0.022l-0.187,-0.023l-0.186,-0.024l-0.186,-0.024l-0.186,-0.026l-0.185,-0.026l-0.184,-0.028l-0.184,-0.028l-0.184,-0.029l-0.183,-0.03l-0.183,-0.031l-0.182,-0.032l-0.182,-0.033l-0.181,-0.033l-0.181,-0.035l-0.18,-0.035l-0.18,-0.036l-0.18,-0.037l-0.179,-0.038l-0.178,-0.039l-0.179,-0.039l-0.177,-0.041l-0.177,-0.041l-0.177,-0.042l-0.176,-0.043l-0.176,-0.043l-0.175,-0.045l-0.175,-0.045l-0.175,-0.046l-0.174,-0.047l-0.173,-0.048l-0.173,-0.048l-0.173,-0.049l-0.172,-0.05l-0.171,-0.051l-0.172,-0.052l-0.17,-0.052l-0.171,-0.053l-0.169,-0.053l-0.17,-0.055l-0.168,-0.055l-0.169,-0.056l-0.168,-0.057l-0.167,-0.057l-0.167,-0.058l-0.167,-0.059l-0.166,-0.059l-0.165,-0.06l-0.165,-0.061l-0.165,-0.062l-0.164,-0.062l-0.164,-0.063l-0.163,-0.064l-0.163,-0.064l-0.162,-0.065l-0.162,-0.065l-0.161,-0.066l-0.161,-0.067l-0.161,-0.068l-0.159,-0.068l-0.16,-0.068l-0.159,-0.07l-0.158,-0.07l-0.316,-0.141l-0.314,-0.145l-0.312,-0.146l-0.309,-0.149l-0.308,-0.151l-0.307,-0.153l-0.304,-0.156l-0.302,-0.158l-0.3,-0.159l-0.299,-0.162l-0.296,-0.164l-0.295,-0.166l-0.293,-0.168l-0.291,-0.169l-0.289,-0.172l-0.286,-0.173l-0.285,-0.176l-0.284,-0.176l-0.281,-0.179l-0.279,-0.18l-0.277,-0.182l-0.276,-0.183l-0.273,-0.185l-0.271,-0.187l-0.27,-0.188l-0.267,-0.189l-0.266,-0.19l-0.264,-0.192l-0.261,-0.193l-0.26,-0.195l-0.258,-0.195l-0.256,-0.197l-0.254,-0.198l-0.251,-0.199l-0.25,-0.2l-0.248,-0.2l-0.246,-0.202l-0.244,-0.203l-0.242,-0.203l-0.24,-0.205l-0.238,-0.205l-0.236,-0.206l-0.234,-0.206l-0.232,-0.207l-0.23,-0.208l-0.228,-0.208l-0.227,-0.209l-0.224,-0.209l-0.222,-0.21l-0.22,-0.21l-0.218,-0.211l-0.216,-0.211l-0.214,-0.211l-0.212,-0.211l-0.21,-0.211l-0.208,-0.212l-0.206,-0.211l0.04,0.053ZM61.658,159.917l0.002,-0.001l-0.014,-0.016l0.012,0.017Z" style="fill:#000;"/></svg>