<?xml version="1.0" standalone="no"?>
<!DOCTYPE svg PUBLIC "-//W3C//DTD SVG 1.1//EN" "http://www.w3.org/Graphics/SVG/1.1/DTD/svg11.dtd">
<svg width="100%" height="100%" viewBox="0 0 80 60" version="1.1" xmlns="http://www.w3.org/2000/svg" xmlns:xlink="http://www.w3.org/1999/xlink" xml:space="preserve" style="fill-rule:evenodd;clip-rule:evenodd;stroke-linecap:round;stroke-linejoin:round;stroke-miterlimit:1.41421;">
    <g transform="matrix(0.88634,0.562922,-0.616383,0.970517,21.9062,-13.7554)">
        <rect x="32.127" y="6.135" width="7.873" height="34.923" style="fill:black;stroke-width:0.91px;stroke:black;"/>
    </g>
    <g transform="matrix(0.872261,0.55398,-0.843544,1.32819,24.1736,-16.0811)">
        <path d="M40,2.75C40,2.336 39.664,2 39.25,2L32.75,2C32.336,2 32,2.336 32,2.75L32,5C40.011,5.003 32.004,5.003 40,5L40,2.75Z" style="fill:black;stroke-width:0.75px;stroke:black;"/>
    </g>
    <g transform="matrix(-0.872261,-0.55398,0.61965,-0.975659,27.6215,117.262)">
        <path d="M36,43C36,43 39.281,48.741 39.9,49.825C39.921,49.862 39.919,49.907 39.895,49.942C39.87,49.978 39.827,50 39.78,50C38.642,50 33.431,50 32.242,50C32.19,50 32.143,49.976 32.116,49.937C32.089,49.897 32.087,49.848 32.11,49.807C32.754,48.681 36,43 36,43Z" style="fill:black;stroke-width:0.91px;stroke:black;"/>
    </g>
</svg>
